<svg width="48" height="48" viewBox="0 0 48 48" fill="none" xmlns="http://www.w3.org/2000/svg">
<g id="Spotify">
<g id="Spotify_2">
<rect id="Rectangle" width="48" height="48" rx="24" fill="black"/>
<path id="Vector" d="M35.0316 34.6122C34.6019 35.3284 33.6852 35.5289 32.9691 35.0992C27.3258 31.6617 20.2501 30.8882 11.8854 32.7789C11.0833 32.9507 10.2812 32.4638 10.1093 31.6617C9.93746 30.8596 10.4244 30.0575 11.2265 29.8856C20.3647 27.7944 28.2138 28.6824 34.516 32.5497C35.2321 32.9794 35.4613 33.8961 35.0316 34.6122ZM37.9535 28.0809C37.4092 28.9689 36.2634 29.2267 35.3754 28.7111C28.9299 24.7293 19.1043 23.5834 11.4844 25.9038C10.4817 26.1902 9.45047 25.6459 9.16401 24.672C8.87755 23.6693 9.42183 22.6381 10.4244 22.3516C19.1329 19.7162 29.9612 20.9766 37.3806 25.5314C38.2113 26.047 38.4978 27.1928 37.9535 28.0809ZM38.2113 21.2631C30.4768 16.6797 17.7292 16.25 10.3385 18.4844C9.16401 18.8568 7.90357 18.1979 7.53117 16.9948C7.15877 15.8203 7.84628 14.5598 9.02078 14.1874C17.5001 11.6093 31.5941 12.1249 40.4744 17.3958C41.5343 18.026 41.8781 19.4011 41.2478 20.461C40.6463 21.5495 39.2713 21.9219 38.2113 21.2631Z" fill="white"/>
</g>
</g>
</svg>
